<?xml version="1.0" encoding="UTF-8"?><!DOCTYPE svg PUBLIC "-//W3C//DTD SVG 1.1//EN" "http://www.w3.org/Graphics/SVG/1.1/DTD/svg11.dtd"><svg xmlns="http://www.w3.org/2000/svg"><symbol id="icon-browsersync" viewBox="0 0 72.3 109">
  <path d="M41.3 32.4v75.3c0 .8.8 1.3 1.5.9l28.9-15.7c.3-.2.5-.5.5-.9V49.3c0-.4-.2-.7-.5-.9L42.9 31.5c-.7-.4-1.6.1-1.6.9zM37.2 108V1c0-.7-.7-1.2-1.4-1L.7 13c-.4.2-.7.5-.7 1v81.4c0 .4.3.8.7 1L35.8 109c.7.2 1.4-.3 1.4-1z"/>
&gt;</symbol><symbol id="icon-gulp" viewBox="0 0 252.536 153.165">
<g>
	<path stroke="#FFFFFF" stroke-miterlimit="10" d="M67.533,79.118c-0.176,0.26-0.494,1.079-0.955,2.456
		c-0.461,1.379-1.021,3.107-1.68,5.188c-0.658,2.079-1.373,4.405-2.14,6.979c-0.769,2.573-1.559,5.199-2.371,7.877
		c-0.812,2.68-1.591,5.304-2.337,7.878c-0.748,2.573-1.416,4.899-2.008,6.98c-0.593,2.078-1.086,3.821-1.482,5.226
		c-0.395,1.403-0.637,2.234-0.724,2.496c-0.22,0.831-0.571,1.754-1.053,2.769c-0.484,1.013-1.054,1.976-1.712,2.886
		c-0.659,0.909-1.382,1.663-2.173,2.262c-0.791,0.597-1.603,0.896-2.436,0.896c-1.406,0-2.426-0.468-3.062-1.403
		c-0.638-0.937-0.955-2.651-0.955-5.147c0-0.365,0-0.729,0-1.093c0-0.364,0.021-0.754,0.066-1.169
		c0.043-0.832,0.373-2.394,0.988-4.681c0.614-2.288,1.35-4.874,2.206-7.76c0.856-2.886,1.778-5.875,2.766-8.969
		s1.876-5.862,2.667-8.308c-2.328,2.602-4.851,5.188-7.572,7.761c-2.723,2.574-5.51,4.888-8.363,6.941
		c-2.854,2.056-5.729,3.732-8.626,5.031c-2.897,1.298-5.686,1.95-8.363,1.95c-3.073,0-5.718-0.677-7.935-2.028
		c-2.217-1.353-4.049-3.12-5.498-5.304s-2.525-4.653-3.227-7.409C0.851,98.667,0.5,95.912,0.5,93.156c0-0.362,0-0.702,0-1.015
		c0-0.311,0.021-0.623,0.066-0.935c0.263-4.992,0.976-10.113,2.14-15.365c1.163-5.252,2.688-10.478,4.577-15.677
		c1.887-5.198,4.071-10.282,6.552-15.248c2.479-4.965,5.179-9.658,8.099-14.078c2.919-4.418,6.025-8.487,9.317-12.206
		c3.292-3.717,6.672-6.915,10.141-9.593c3.467-2.677,6.968-4.77,10.502-6.278C55.427,1.254,58.929,0.5,62.396,0.5
		c3.994,0,7.858,1.092,11.589,3.275c3.73,2.184,7.22,5.721,10.47,10.607c0.745,1.092,1.218,2.197,1.415,3.314
		c0.197,1.119,0.296,2.171,0.296,3.159c0,2.339-0.56,4.187-1.679,5.538c-1.119,1.353-2.447,2.028-3.984,2.028
		c-1.405,0-2.71-0.741-3.918-2.223c-1.208-1.482-2.558-3.6-4.05-6.356c-1.405-2.496-2.953-4.302-4.642-5.42
		c-1.69-1.118-3.523-1.677-5.499-1.677c-3.073,0-6.354,1.275-9.844,3.822c-3.49,2.548-6.947,5.916-10.371,10.101
		c-3.425,4.186-6.706,8.968-9.845,14.35c-3.138,5.382-5.916,10.893-8.33,16.535c-2.415,5.642-4.335,11.206-5.761,16.689
		c-1.427,5.486-2.14,10.412-2.14,14.781c0,1.455,0.099,2.951,0.296,4.483c0.198,1.534,0.57,2.926,1.12,4.173
		c0.548,1.248,1.294,2.275,2.239,3.08c0.944,0.809,2.14,1.209,3.589,1.209c1.624,0,3.468-0.545,5.531-1.638
		c2.062-1.091,4.203-2.521,6.42-4.289c2.216-1.768,4.444-3.769,6.684-6.006c2.239-2.234,4.323-4.496,6.255-6.785
		c1.931-2.287,3.644-4.485,5.136-6.591c1.492-2.105,2.611-3.938,3.358-5.498l6.124-18.329c0.746-1.975,1.722-3.378,2.93-4.211
		c1.207-0.831,2.447-1.248,3.721-1.248c0.614,0,1.228,0.105,1.843,0.312c0.614,0.208,1.163,0.533,1.646,0.975
		c0.483,0.442,0.866,1.014,1.152,1.716c0.285,0.702,0.428,1.521,0.428,2.456c0,2.496-0.22,4.836-0.658,7.02
		c-0.439,2.186-0.999,4.316-1.679,6.396c-0.681,2.079-1.438,4.173-2.271,6.278C69.134,74.632,68.322,76.83,67.533,79.118z"/>
	<path stroke="#FFFFFF" stroke-miterlimit="10" d="M150.565,94.405c-1.933,2.6-4.182,5.134-6.749,7.604
		c-2.568,2.47-5.214,4.667-7.935,6.591c-2.723,1.923-5.4,3.47-8.033,4.64c-2.634,1.17-5.004,1.755-7.111,1.755
		s-3.819-0.702-5.137-2.105c-1.316-1.403-1.975-3.795-1.975-7.176c0-2.392,0.351-5.174,1.053-8.346
		c-1.142,2.029-2.567,4.083-4.279,6.162c-1.713,2.08-3.666,3.978-5.861,5.694c-2.195,1.716-4.653,3.106-7.375,4.171
		c-2.722,1.065-5.686,1.6-8.889,1.6c-1.448,0-2.843-0.183-4.182-0.547c-1.34-0.363-2.513-0.986-3.522-1.871
		c-1.011-0.883-1.822-2.065-2.437-3.549c-0.615-1.48-0.922-3.34-0.922-5.576c0-0.052,0.088-0.845,0.264-2.379
		c0.174-1.533,0.734-3.951,1.679-7.254c0.943-3.3,2.404-7.577,4.379-12.829c1.976-5.252,4.763-11.62,8.362-19.107
		c0.922-1.976,1.986-3.393,3.193-4.251c1.208-0.858,2.513-1.287,3.918-1.287c0.615,0,1.251,0.092,1.91,0.272
		c0.659,0.184,1.272,0.468,1.844,0.858c0.57,0.39,1.031,0.885,1.383,1.481c0.352,0.598,0.527,1.286,0.527,2.067
		c0,0.52-0.066,1.015-0.198,1.48c-0.22,0.887-0.691,2.042-1.416,3.471c-0.725,1.431-1.569,3.07-2.534,4.915
		c-0.967,1.846-1.987,3.835-3.062,5.967c-1.076,2.132-2.074,4.341-2.996,6.629c-0.922,2.289-1.712,4.615-2.37,6.98
		c-0.659,2.366-1.032,4.667-1.119,6.901c0,0.937,0.219,1.795,0.658,2.574c0.438,0.78,1.162,1.171,2.173,1.171
		c2.853,0,5.574-0.937,8.165-2.809c2.59-1.871,4.981-4.198,7.178-6.98c2.194-2.78,4.181-5.771,5.958-8.969
		c1.778-3.198,3.261-6.122,4.445-8.774c0.834-1.768,1.568-3.666,2.206-5.694c0.636-2.027,1.327-3.898,2.074-5.615
		c0.746-1.716,1.602-3.145,2.567-4.289c0.965-1.144,2.173-1.716,3.622-1.716c1.58,0,2.83,0.599,3.753,1.793
		c0.922,1.197,1.382,2.626,1.382,4.29c0,0.937-0.295,2.223-0.888,3.86c-0.594,1.639-1.34,3.511-2.24,5.616
		c-0.899,2.105-1.876,4.354-2.929,6.746c-1.054,2.393-2.032,4.823-2.93,7.292c-0.901,2.471-1.646,4.889-2.239,7.255
		c-0.593,2.365-0.889,4.562-0.889,6.589c0,1.873,0.965,2.808,2.896,2.808c1.36,0,3.051-0.468,5.069-1.402
		c2.021-0.937,4.138-2.25,6.355-3.939c2.216-1.689,4.433-3.679,6.65-5.966c2.216-2.288,4.182-4.758,5.893-7.41L150.565,94.405z"/>
	<path stroke="#FFFFFF" stroke-miterlimit="10" d="M152.607,90.503c-0.483,1.197-0.955,2.588-1.416,4.174
		c-0.462,1.586-0.691,3.002-0.691,4.25c0,0.779,0.132,1.403,0.395,1.872c0.264,0.468,0.769,0.702,1.516,0.702
		c0.921,0,2.073-0.324,3.456-0.975c1.382-0.65,2.874-1.509,4.478-2.574c1.603-1.064,3.271-2.287,5.004-3.666
		c1.733-1.377,3.457-2.808,5.169-4.289c1.713-1.483,3.347-2.964,4.906-4.445c1.558-1.483,2.952-2.848,4.182-4.095
		c0.351-0.364,0.767-0.625,1.251-0.78c0.481-0.156,0.899-0.234,1.251-0.234c0.877,0,1.603,0.364,2.173,1.093
		c0.569,0.728,0.855,1.688,0.855,2.886c0,1.091-0.308,2.313-0.921,3.665c-0.615,1.353-1.69,2.679-3.228,3.977
		c-2.81,3.069-5.64,5.98-8.494,8.736c-2.854,2.756-5.695,5.186-8.526,7.291c-2.832,2.107-5.642,3.783-8.429,5.032
		c-2.788,1.247-5.498,1.871-8.133,1.871c-1.8,0-3.304-0.286-4.51-0.857c-1.209-0.573-2.173-1.353-2.897-2.339
		c-0.725-0.989-1.241-2.158-1.548-3.511c-0.308-1.352-0.46-2.78-0.46-4.289c0-2.548,0.318-5.16,0.954-7.84
		c0.636-2.676,1.393-5.134,2.271-7.369c1.536-4.057,3.096-8.084,4.676-12.089c1.579-4.003,3.028-7.669,4.347-10.998l19.95-50.305
		c0.79-2.028,1.854-3.458,3.194-4.29c1.339-0.831,2.688-1.248,4.05-1.248c1.359,0,2.601,0.442,3.721,1.326
		c1.118,0.885,1.679,2.314,1.679,4.29c0,0.936-0.188,1.924-0.561,2.963c-0.373,1.042-0.845,2.158-1.415,3.354
		c-1.098,2.444-2.403,5.434-3.918,8.968c-1.515,3.537-3.14,7.384-4.874,11.543c-1.733,4.161-3.512,8.489-5.332,12.986
		c-1.823,4.497-3.601,8.878-5.335,13.142c-1.733,4.265-3.357,8.306-4.872,12.128C155.01,84.381,153.704,87.696,152.607,90.503z"/>
	<path stroke="#FFFFFF" stroke-miterlimit="10" d="M245.912,76.387c0.615-0.416,1.187-0.753,1.713-1.015
		c0.526-0.258,1.031-0.39,1.515-0.39c0.964,0,1.689,0.43,2.173,1.287c0.482,0.858,0.724,1.911,0.724,3.159
		c0,1.354-0.295,2.729-0.889,4.134c-0.592,1.403-1.481,2.573-2.667,3.509c-4.698,4.16-8.89,7.955-12.575,11.388
		c-3.688,3.431-7.168,6.383-10.438,8.853c-3.27,2.47-6.463,4.381-9.58,5.732c-3.117,1.351-6.453,2.027-10.01,2.027
		c-3.336,0-5.915-0.729-7.736-2.184c-1.822-1.455-2.733-3.457-2.733-6.006c0-0.207,0-0.401,0-0.585c0-0.181,0.021-0.402,0.066-0.663
		c0.174-1.559,0.856-3.354,2.041-5.381c1.186-2.028,2.612-4.134,4.28-6.317s3.445-4.394,5.334-6.63
		c1.887-2.234,3.631-4.354,5.235-6.357c1.602-2,2.93-3.833,3.982-5.498c1.055-1.663,1.581-3.014,1.581-4.055
		c0-0.624-0.221-1.117-0.658-1.482c-0.438-0.363-1.164-0.545-2.173-0.545c-1.757,0-3.566,0.454-5.432,1.365
		c-1.867,0.908-3.711,2.131-5.532,3.664c-1.822,1.535-3.601,3.29-5.334,5.265c-1.734,1.977-3.357,4.03-4.873,6.162
		c-1.515,2.133-2.896,4.276-4.148,6.435c-1.251,2.157-2.316,4.146-3.193,5.966c-0.263,0.572-0.637,1.379-1.12,2.418
		c-0.483,1.041-1.01,2.211-1.579,3.511c-0.572,1.299-1.175,2.64-1.812,4.015c-0.637,1.379-1.218,2.68-1.744,3.9
		c-0.527,1.222-1,2.312-1.416,3.276c-0.418,0.961-0.715,1.624-0.889,1.988c-0.221,0.468-0.583,1.351-1.087,2.651
		c-0.505,1.3-1.086,2.82-1.746,4.563c-0.657,1.741-1.35,3.574-2.073,5.498s-1.404,3.744-2.041,5.46
		c-0.637,1.715-1.197,3.223-1.679,4.523c-0.483,1.299-0.791,2.184-0.923,2.651c-0.438,1.352-0.955,2.625-1.547,3.822
		c-0.593,1.195-1.273,2.248-2.041,3.159c-0.768,0.908-1.647,1.637-2.634,2.184c-0.989,0.546-2.097,0.818-3.325,0.818
		c-1.581,0-2.886-0.378-3.919-1.131c-1.03-0.754-1.547-2.197-1.547-4.329c0-1.04,0.131-2.105,0.395-3.196
		c0.265-1.093,0.594-2.173,0.988-3.238c0.395-1.066,0.802-2.105,1.218-3.118c0.418-1.015,0.803-1.989,1.152-2.926
		c2.371-5.2,4.785-10.412,7.243-15.638c2.459-5.226,4.818-10.397,7.078-15.521c2.261-5.121,4.357-10.152,6.29-15.092
		c1.931-4.939,3.533-9.671,4.806-14.194c0.351-0.937,0.834-2.262,1.449-3.979c0.614-1.715,1.316-3.404,2.107-5.069
		c0.79-1.663,1.679-3.106,2.666-4.327c0.988-1.222,2.052-1.834,3.193-1.834c1.757,0,3.029,0.402,3.819,1.209
		c0.791,0.807,1.186,1.988,1.186,3.549c0,0.312-0.044,0.807-0.131,1.481c-0.089,0.676-0.198,1.393-0.329,2.146
		c-0.132,0.754-0.275,1.469-0.429,2.146c-0.154,0.676-0.297,1.169-0.429,1.48c1.624-1.768,3.38-3.522,5.269-5.264
		c1.887-1.741,3.841-3.316,5.861-4.719c2.018-1.403,4.082-2.547,6.189-3.433c2.107-0.883,4.214-1.325,6.321-1.325
		c1.447,0,2.886,0.208,4.312,0.624c1.426,0.416,2.7,1.027,3.819,1.832c1.12,0.808,2.03,1.821,2.732,3.042
		c0.701,1.223,1.053,2.64,1.053,4.251c0,2.133-0.537,4.407-1.612,6.825c-1.076,2.417-2.426,4.848-4.049,7.291
		c-1.626,2.445-3.382,4.823-5.269,7.137c-1.889,2.314-3.654,4.42-5.301,6.317c-1.646,1.898-3.028,3.51-4.148,4.835
		c-1.119,1.327-1.702,2.224-1.745,2.691c0,0.625,0.198,1.131,0.593,1.521s1.054,0.585,1.976,0.585c0.746,0,1.844-0.417,3.293-1.249
		c1.447-0.831,3.478-2.274,6.09-4.327c2.61-2.054,5.927-4.81,9.943-8.269C235.081,85.995,240.03,81.639,245.912,76.387z"/>
</g>
<g>
</g>
<g>
</g>
<g>
</g>
<g>
</g>
<g>
</g>
<g>
</g>
</symbol><symbol id="icon-jade" viewBox="0 0 800 316">
<path fill="#569A83" d="M118.9,23.8c3.5,0,5.1,1.7,5.1,5.1v171.5c0,6.3-1.2,12.4-3.7,18s-5.7,10.5-9.9,14.7
	c-4.2,4.2-9.1,7.5-14.7,9.9s-11.6,3.7-18,3.7h-14c-6.3,0-12.4-1.2-18-3.7c-5.6-2.4-10.5-5.7-14.7-9.9s-7.5-9.1-9.9-14.7
	c-2.5-5.6-3.7-11.6-3.7-18v-39.3c0-3.5,1.6-5.6,4.8-6.6l33.4-8.8c3.2-1,4.8,0.2,4.8,3.7v49.2c0,2.5,0.8,4.5,2.6,6.2
	c1.7,1.7,3.8,2.6,6.2,2.6h3c2.4,0,4.5-0.8,6.2-2.6c1.7-1.7,2.6-3.8,2.6-6.2V29c0-3.5,1.7-5.1,5.1-5.1
	C86.2,23.8,118.9,23.8,118.9,23.8L118.9,23.8z M261.7,239c0.5,3.5-1,5.1-4.4,5.1h-33.4c-3.2,0-5-1.7-5.5-5.1l-3-35.9h-22.8l-3,35.9
	c-0.5,3.5-2.4,5.1-5.5,5.1h-33.4c-3.5,0-4.9-1.7-4.4-5.1l27.6-210c0.5-3.5,2.4-5.1,5.9-5.1h48.5c3.5,0,5.4,1.7,5.9,5.1L261.7,239z
	 M212.5,161.9l-6.9-81.2h-3l-6.9,81.2H212.5L212.5,161.9z M346.1,23.8c6.3,0,12.3,1.2,18,3.7c5.6,2.5,10.5,5.7,14.7,9.9
	s7.5,9.1,9.9,14.7s3.7,11.6,3.7,18v127.8c0,6.3-1.2,12.4-3.7,18s-5.7,10.5-9.9,14.7c-4.2,4.2-9.1,7.5-14.7,9.9
	c-5.6,2.5-11.6,3.7-18,3.7h-55c-3.5,0-5.1-1.7-5.1-5.1V29c0-3.5,1.7-5.1,5.1-5.1L346.1,23.8L346.1,23.8z M349.5,71.9
	c0-2.4-0.8-4.5-2.6-6.2c-1.7-1.7-3.8-2.6-6.2-2.6H329v141.7h11.7c2.4,0,4.5-0.8,6.2-2.6c1.7-1.7,2.6-3.8,2.6-6.2V71.9z M511.8,206.3
	V239c0,3.5-1.7,5.1-5.1,5.1H427c-3.5,0-5.1-1.7-5.1-5.1V29c0-3.5,1.7-5.1,5.1-5.1h79.6c3.5,0,5.1,1.7,5.1,5.1v32.6
	c0,3.5-1.7,5.1-5.1,5.1h-41.9v41.9H501c3.5,0,5.1,1.7,5.1,5.1v32.7c0,3.5-1.7,5.1-5.1,5.1h-36.3v49.6h41.9
	C510.1,201.1,511.8,202.8,511.8,206.3L511.8,206.3z"/>
<path fill="#C1272D" d="M723.7,144.1c1.1,1.1,1.2,2.9-0.1,3.8c-3.2,2.1-7.3,1.8-11.1,1.4c-6.4-0.7-14-1-17.3-7
	c-0.1,0-0.1-0.1-0.2-0.2c-4.2-2.3,2.9-3.9,4.9-4.2c4.5-0.6,9.3,0.6,13.7,1.6C717.3,140.2,720.8,141.2,723.7,144.1L723.7,144.1z
	 M782.1,239.5c-3,2.1-1.7,5.7-3.8,8.2c-2.1,2.4-7.2,2.4-9.9,2.4c-11.5,0.1-22.7-0.8-34,0.1c-2.9,0.2-5.5,0.6-8.2,1.3
	c-0.8,0.2-2.1,0.7-3,0.2c-2.3-1.2-4.4-5-7.4-3.8c-2.5,1.1-4.4,4.7-7.4,2.5c-5.5-4.1-10.1-0.4-15.9,0.7c-6,1.2-11.7-2.1-17.6-0.5
	c-4.4,1.3-8.6,2.6-13.1,1.1c-4.5-1.6-5.7-5.1-1.8-8.4c6.2-5.1,13.9-5.9,21.6-5.3c11.7,1,23.3,0.1,35-0.5c0.4,0,0.6,0.2,0.6,0.5
	c5,2,8.2-2,11.1-5.5c0.4-0.5,1.1-0.2,1.3,0.1c4.2,6.2,9.3-0.8,14.6-0.2c1.4,0.1,2.7,0.5,3.6,1.8c0.4,0.6,0.5,1.3,0.5,2
	c0.2,3.2,4.3,2.5,4.2-0.7c0-0.5,0.6-1,1.1-0.8c4.2,1.7,9.6,3.9,13-0.5c2.9-3.7,3.3-9,3.6-13.5c0.6-12.1-0.2-24.5-1.1-36.5
	c-0.7-11.7-2-23.6-0.6-35.3c1.4-11.6,1.3-22.9,1.1-34.6c-0.1-6.1-0.4-12.2,0-18.3c0.2-5.6,1.2-11.6,0.6-17.2
	c-0.6-5-3.6-9.3-4.2-14.2c-0.6-4.5,0-9.2,1.1-13.6c0.6-2.7,2-6,1.9-8.8c-0.1-2.4-0.2-4.9-0.1-7.3c0-1.2-0.2-3.1,0.7-4.1
	c1.4-1.7,2.1-4.2-1.2-4.5c-7.9-1-16-6-23.5-1.1c0.1,1.7,0.2,3.6-0.2,5.3l1.1,1.4c1.9,0.8,3.8,1.1,5.9,1.2c2.4,0,5-0.6,7.4-0.4
	c2,0.2,3.7,2,3,4.3c-0.5,1.7-2,3.1-2.9,4.5c-1.6,2.5-1.3,6.1-1.3,9c-0.1,7.3,0,14.6,0.2,21.7c0.2,6,0.8,12.1,1.2,18.1
	c0.1,0.1,0.5,0.2,0.5,0.5c0.2,6.8,2.5,13.5,2.6,20.3c0.1,0.1-1.8,8.4-1.8,8.4c-0.1,8.8-0.8,25.1-0.8,25.1c-0.1,15-2.7,29.9-0.1,44.8
	c1.1,6-1.2,11.8-1.4,17.8c-0.2,6.6,0.6,13.1-0.4,19.7c0.1,0.4,0,0.8-0.5,1c-13.7,2.6-27.6,3.1-41.6,2.3c-3.5-0.2-7.6-0.5-11,0.8
	c-1.3,0.6-3.1,1.4-4.7,1.3c-2-0.2-3-1.8-4.9-2.1c-2.4-0.5-4.7-1-7-1.2c-6.2-0.8-12.1-1.2-17.9,1.3c-3.2,1.4-6.6,0.8-9.8-0.5
	c-3.8-1.6-6.7-3.5-10.9-1.4c-1.7,0.8-3.2,1.7-5.1,2.1c-1.6,0.4-3,0-4.4-0.6c-3.2-1.2-5.7-1.6-9.1-1c0.4,0.5,0.1,1.4-0.6,1.4
	c-20.3-1.1-40.7,1.3-61,1.6c-1,0.2-1.7,1.3-2.3,1.3h-0.6c-0.5,0-0.6-1.7-0.5-2c-2.7-3-2-12.9-1.9-15.8c0.8-18.9-1.6-37.9-2.1-56.7
	c-0.2-9.4-0.2-18.9,1.3-28.2c1.8-10.5,1.8-20.7,1.6-31.2c-0.5-20.9,1.6-41.7,1-62.6c0-0.4,0.4-0.5,0.6-0.4l0.2-0.1
	c5.6-0.5,11.7-2,17.2-0.5c0.1,0,0.2,0.1,0.2,0.2l0.8,0.1h6.2c0.2,0,0.5,0.1,0.5,0.2c11,0.1,22-0.8,33-1.3c3.8-0.1,7.8,0,11.6-1.2
	c1.9-0.6,4.2-1.6,6.2-1.4c5,0.4,10.1,1.9,15,3c3.5,0.7,5.9-5.3,9-3.2c4.7,3,10.1,1.9,15.5,2c2.9,0.1,5.6-0.5,8.5-0.5
	c1.6,0,2.9,0.4,4.3,0.7c1.4-0.2,2.6-0.1,4.2,0.5l25.6-0.8c5.1,0.1,10.7,0.5,15.6-1.4c1.3-0.5,2-1.2,2.4-2c-0.2-0.4-0.4-0.8-0.6-1.3
	c-0.4-0.7-0.8-1.6-1.3-2.1c-5.5-1.8-11.8-1.3-17.6-1.6c-7.9-0.4-15.6,0.7-23.5,1.3c-7.3,0.6-14.9,1.1-22.2,0.5
	c-4.3-0.4-12.4-2.3-16.1,0.7c-0.4,0.2-0.7,0.2-1.1,0c-7-5.7-16.2,2.9-24.2,0.5c-4.8-1.4-9.3-2.4-14.4-1.8c-4.9,0.5-9.7,1.2-14.7,1.2
	c-10.9-0.1-21.7,0.6-32.6,0.2c-2.4-0.1-4.7-0.1-6.9-0.4c-1.9-0.2-4.4-1.2-6.3-0.4c-3,1.1-3.6,2.1-3.3,3c0.8,0.6-2,4.4-2,6.3l-0.2,5
	c-0.1,7.4-0.6,14.2-2.3,21.4c-0.8,3.8-2.7,9.2-1.3,13c0.8,2.5,2.7,4.2,3.8,6.4c1.9,4.1,2,9.1,1.8,13.5l-1.2,43
	c-0.5,14.3-1.4,28.7-0.8,43.1c0.5,13.3,2.6,26.9,0.8,40.1c-0.6,4.4-5.9,12.2-0.8,15.3c2.9,1.7,6.3,2.1,9.6,2.4
	c8.1,0.5,16.2-0.4,24.4-1.3c3-0.4,6-1,9-1c2.3-0.1,4.4,0.2,6.6,1c1.9,0.7,4.8,2,7,2c0.1,0.1,3.6-0.1,3.8-1.1c3-1.3,5.6-2.3,9.4-1.6
	c3.7,0.7,7,1.2,10.9,0.5c2-0.4,5-0.6,7-0.1l0.8,0.6c0.8-0.4-0.5,1-1.3,1.3c-4.5,1.8-3.1,7.6-3.6,11.5c0,0.4-0.5,0.5-0.7,0.5
	c-1.8,0-4.3,0-5.3-1.9c-2.1-3.9-7.2-6.6-7.2,1.6c0,0.5-0.4,0.7-0.7,0.7c-0.4,0-0.7-0.2-0.7-0.7s-5.3-3.3-5.9-3.6
	c-2.6-1.4-5.6-3.1-8.7-2c-1.9,0.6-3.5,1.7-5.3,2.5c-3.2,3.9-6.6,8.1-11.3,5.6c-1-0.5-4.9-3.9-5.7-3.2c-1.1,1.2-2.3,2.4-3.8,3
	c-4.3,1.7-8.8,1.4-13.4,1.3c-0.2,0-0.7-0.2-0.7-0.6c-0.2-1.8-1.2-5.4-3.7-3.2c-0.6,0.5-1.1,1-1.7,1.6c-0.7,0.6-1.6,1.4-2.5,1.8
	c-3,1.2-12.2-0.4-13.4-2.5c-1-1.6-1.3-3.2-1.7-5c-0.7-4.4-0.2-9.2-0.4-13.7c-0.4-11.3-1.2-22.4-2.1-33.7c-0.5-5.7-1-11.6-0.5-17.4
	c0.2-3.7,0.4-8.8,2.3-12.2c1.6-2.7,0.5-4.9-1.6-6.9c-0.5-0.6-0.7-1.7-0.7-2.4c-0.4-4.2,0.4-8.6,0.6-12.8c0.2-3.1,0.7-6.2,0.7-9.3
	c0-2.4-0.5-4.7-0.7-7c-0.1-1.2-0.2-2.4,0.5-3.5c1.4-2,1.2-3.1,0.4-5.4c-1.6-4.4,0-9.7,0.2-14.3c0.4-5.4,0.6-10.7,0-16.2
	c-0.6-6-1.8-11.8-1.4-17.9c0.4-5.5,0.7-10.5,1-15.9c0.5-9.8,0.5-19.7,0.2-29.5v2.3c0,0-0.8-12.5,4.4-15.5c8-4.4,17.7-3.7,26.4-4.1
	c11.3-0.5,22.7,0.6,34,0.6c6.6,0,13.1-0.1,19.5-1.6c4.5-1,9-1.4,13.6-1.2c5.6,0.4,11,1.8,16.5,2.3s10.9,0.2,16.4-0.1
	c11.9-0.8,23.9-0.5,35.8,0l18.6,0.8c2.9,0.1,6.2,0.8,9,0.1l5.3-1.8c3.9-1.1,6.6-0.1,10.4,0.8l14,3.3c1.6-0.4,3.1-0.5,4.3,0.7
	c2.6,2.4,0.1,5.4,2,8.1c2.3,3.2,4.4,5.3,4.9,9.4c0.5,4.4,0.7,9.2-0.7,13.5c-1,2.9-2.3,6-1.1,9.1c0.7,1.9,2,3.7,2.5,5.7
	c1,4.3,1,8.6,0.7,13c-0.2,5-0.5,10.1-1.1,15c-0.4,3.2-1.7,6.3-1.8,9.4c-0.1,2.6,0.7,4.8,1.2,7.3c1.7,8.2-5.5,13.4-6.8,20.9
	c-0.7,4.1,3.9,2.3,6,4.7c1.3,1.6,0.6,4.2,0.5,5.9c-0.5,4.4,0.8,8.7,0.6,13.1c-0.2,5.5-1.9,10-0.6,15.5c0.7,3.1,1.3,6.2,0.6,9.3
	s-4.3,10.9,0.5,12.3c0.2,0,0.4,0.2,0.4,0.5c0,1.4-0.2,2.4-0.8,3.7c-2.1,4.8,1.2,3.8,1.8,6.9c0.6,2.9-1.1,3.9-1.6,6.6
	c-0.7,4.3,1.6,7.6,1.4,11.8c-0.1,3.9-2.3,6.1-1.6,9.7c0.2,0,0.5,0.2,0.5,0.5c0.4,1.9,0.6,4.1-0.1,6c-1,2.7-2.1,3.5,1,5.1
	C782.6,238.5,782.6,239.2,782.1,239.5L782.1,239.5z M729.8,106.8c-1.9-11.7-3-23.9-6.9-35.1c-1.7-4.7-2.5-9.8-8-10.7
	c-7.2-1.2-4.8,4.8-3.8,10.5c1.4,8.8,2,17.8,4.3,26.5c1.6,6,4.5,13.1-3.5,8.5c-13.4-8.1-18-25.8-23.4-39c-2.4-6-9.4-20.3-14.2-23.9
	c-2.3-1.7-13.6-4.2-15.8-2.7c-4.7,3.2,9.8,25.7,11.8,29.7c4.4,9,9.1,17.9,14.8,26c4.1,5.7,10.5,11,1.4,14.4
	c-9.4,3.6-14-1.7-20.4-6.6c-5.1-3.8-11.6-4.4-18-5.1c-17.6-2.1-34.3-0.1-48.4,11.6c-6.8,5.7-11.1,13.5-14.7,21.5
	c-1,2-6.8,19.7-6,19.8c-3.6-0.6-1.4-9-6-4.1c-4.1,4.3,1.2,16.7,3,21c4.1,9.6,8.4,19,11.6,29c3.2,10,3.9,9.8,13.1,10.6
	c11.7,1.1,23.2-2.5,34.7-3.9c0,0-20.4-12.7,19.9,1.2c9,3.1,18.5,2.3,27.9,2.6c6.7-1.6,6.9-13.1,10.4-18.5c1.3-2,7.8-12.2,9.8-13
	c2.9-1.1,7,1.9,9.9,2.3c16.8,2.6,22-11.2,19.3-24.7c-2.3-11.8-1-25,0.7-34.1C734,117.2,730.4,109.9,729.8,106.8L729.8,106.8z
	 M654.7,250.4c-1.8-1.7-4.5-2.1-6.3-3.9c-1-1.1-1.3-2.1-1.1-3.3c0,0-0.1,0-0.1-0.1c-1.3-2.4,1.7-4.4,3.8-3.6
	c1.1,0.5,2.7,1.2,2.9,2.5c0.1,1.7-1,2.9-1.3,4.4c1.2,0.7,2.4,2.4,3,3.2C656,250.3,655.2,250.9,654.7,250.4L654.7,250.4z"/>
<g>
	<path fill="#333333" d="M113.4,273.5l10.7,17.2h0.1v-17.2h5.3v25.7h-5.7L113.1,282H113v17.2h-5.3v-25.7H113.4z"/>
	<path fill="#333333" d="M141.4,281.1c0.6-1.6,1.4-3.1,2.5-4.3c1.1-1.2,2.4-2.2,4-2.9s3.3-1,5.3-1c2,0,3.8,0.3,5.3,1
		c1.6,0.7,2.9,1.7,4,2.9c1.1,1.2,1.9,2.7,2.5,4.3c0.6,1.6,0.9,3.4,0.9,5.3c0,1.9-0.3,3.6-0.9,5.2c-0.6,1.6-1.4,3-2.5,4.2
		s-2.4,2.1-4,2.8c-1.6,0.7-3.3,1-5.3,1c-2,0-3.7-0.3-5.3-1c-1.6-0.7-2.9-1.6-4-2.8s-1.9-2.6-2.5-4.2s-0.9-3.4-0.9-5.2
		C140.5,284.5,140.8,282.7,141.4,281.1z M146.5,289.6c0.3,1,0.7,1.9,1.2,2.8c0.6,0.8,1.3,1.5,2.2,2c0.9,0.5,2,0.7,3.2,0.7
		c1.3,0,2.4-0.2,3.2-0.7c0.9-0.5,1.6-1.1,2.2-2c0.6-0.8,1-1.7,1.2-2.8c0.3-1,0.4-2.1,0.4-3.2c0-1.1-0.1-2.2-0.4-3.3s-0.7-2-1.2-2.8
		c-0.6-0.8-1.3-1.5-2.2-2c-0.9-0.5-2-0.7-3.2-0.7c-1.3,0-2.4,0.2-3.2,0.7c-0.9,0.5-1.6,1.2-2.2,2s-1,1.8-1.2,2.8s-0.4,2.1-0.4,3.3
		C146.2,287.5,146.3,288.6,146.5,289.6z"/>
	<path fill="#333333" d="M187.9,273.5c1.7,0,3.2,0.3,4.6,0.8c1.4,0.5,2.7,1.3,3.7,2.4c1,1.1,1.9,2.4,2.4,4s0.9,3.4,0.9,5.6
		c0,1.9-0.2,3.6-0.7,5.2c-0.5,1.6-1.2,3-2.2,4.1c-1,1.2-2.2,2.1-3.6,2.7c-1.5,0.7-3.2,1-5.1,1h-11.1v-25.7H187.9z M187.5,294.4
		c0.8,0,1.6-0.1,2.4-0.4c0.8-0.3,1.5-0.7,2.1-1.3s1.1-1.4,1.4-2.4c0.4-1,0.5-2.2,0.5-3.6c0-1.3-0.1-2.5-0.4-3.5s-0.7-1.9-1.2-2.7
		s-1.3-1.3-2.3-1.7c-0.9-0.4-2.1-0.6-3.5-0.6h-4v16.2H187.5z"/>
	<path fill="#333333" d="M229.9,273.5v4.8h-13.6v5.5h12.5v4.4h-12.5v6.3h13.9v4.8h-19.5v-25.7H229.9z"/>
	<path fill="#333333" d="M256.4,278.2v-4.8h21.1v4.8h-7.7v21h-5.7v-21H256.4z"/>
	<path fill="#333333" d="M306.9,273.5v4.8h-13.6v5.5h12.5v4.4h-12.5v6.3h13.9v4.8h-19.5v-25.7H306.9z"/>
	<path fill="#333333" d="M326.1,273.5l6,17.7h0.1l5.7-17.7h8v25.7h-5.3V281h-0.1l-6.3,18.2h-4.4l-6.3-18h-0.1v18h-5.3v-25.7H326.1z"/>
	<path fill="#333333" d="M369.6,273.5c1.6,0,3,0.2,4.1,0.7c1.1,0.5,2,1.1,2.8,1.9c0.7,0.8,1.2,1.6,1.5,2.6s0.5,2,0.5,3.1
		c0,1-0.2,2-0.5,3c-0.3,1-0.8,1.9-1.5,2.6c-0.7,0.8-1.6,1.4-2.8,1.9c-1.1,0.5-2.5,0.7-4.1,0.7h-5.9v9.2H358v-25.7H369.6z
		 M368.1,285.6c0.6,0,1.3,0,1.9-0.1c0.6-0.1,1.1-0.3,1.6-0.6c0.5-0.3,0.8-0.7,1.1-1.2c0.3-0.5,0.4-1.2,0.4-2c0-0.8-0.1-1.5-0.4-2
		c-0.3-0.5-0.6-0.9-1.1-1.2c-0.5-0.3-1-0.5-1.6-0.6c-0.6-0.1-1.2-0.1-1.9-0.1h-4.4v7.7H368.1z"/>
	<path fill="#333333" d="M394.9,273.5v21h12.5v4.8h-18.2v-25.7H394.9z"/>
	<path fill="#333333" d="M430.6,273.5l9.6,25.7h-5.9l-1.9-5.7h-9.6l-2,5.7h-5.7l9.7-25.7H430.6z M430.9,289.2l-3.2-9.4h-0.1
		l-3.3,9.4H430.9z"/>
	<path fill="#333333" d="M444.3,278.2v-4.8h21.1v4.8h-7.7v21H452v-21H444.3z"/>
	<path fill="#333333" d="M494.8,273.5v4.8h-13.6v5.5h12.5v4.4h-12.5v6.3H495v4.8h-19.5v-25.7H494.8z"/>
	<path fill="#333333" d="M542.5,273.5v4.8h-13.6v5.5h12.5v4.4h-12.5v6.3h13.9v4.8h-19.5v-25.7H542.5z"/>
	<path fill="#333333" d="M559.4,273.5l10.7,17.2h0.1v-17.2h5.3v25.7h-5.7L559.2,282h-0.1v17.2h-5.3v-25.7H559.4z"/>
	<path fill="#333333" d="M602.9,299c-1.2,0.5-2.5,0.8-3.7,0.8c-2,0-3.7-0.3-5.3-1c-1.6-0.7-2.9-1.6-4-2.8c-1.1-1.2-1.9-2.6-2.5-4.2
		s-0.9-3.4-0.9-5.2c0-1.9,0.3-3.7,0.9-5.3c0.6-1.6,1.4-3.1,2.5-4.3c1.1-1.2,2.4-2.2,4-2.9c1.6-0.7,3.3-1,5.3-1
		c1.3,0,2.6,0.2,3.8,0.6c1.2,0.4,2.4,1,3.3,1.7c1,0.8,1.8,1.7,2.5,2.8c0.6,1.1,1,2.4,1.2,3.9h-5.4c-0.3-1.4-1-2.5-1.9-3.2
		c-1-0.7-2.1-1.1-3.5-1.1c-1.3,0-2.4,0.2-3.2,0.7c-0.9,0.5-1.6,1.2-2.2,2c-0.6,0.8-1,1.8-1.2,2.8s-0.4,2.1-0.4,3.3
		c0,1.1,0.1,2.1,0.4,3.2c0.3,1,0.7,1.9,1.2,2.8c0.6,0.8,1.3,1.5,2.2,2c0.9,0.5,2,0.7,3.2,0.7c1.9,0,3.3-0.5,4.3-1.4
		c1-0.9,1.6-2.3,1.8-4.1h-5.7v-4.2h10.8v13.9h-3.6l-0.6-2.9C605.2,297.5,604.1,298.5,602.9,299z"/>
	<path fill="#333333" d="M627.8,273.5v25.7h-5.7v-25.7H627.8z"/>
	<path fill="#333333" d="M645.6,273.5l10.7,17.2h0.1v-17.2h5.3v25.7h-5.7L645.4,282h-0.1v17.2H640v-25.7H645.6z"/>
	<path fill="#333333" d="M693.1,273.5v4.8h-13.6v5.5H692v4.4h-12.5v6.3h13.9v4.8h-19.5v-25.7H693.1z"/>
</g>
</symbol><symbol id="icon-sass" viewBox="0 0 512 384"><path fill="#CF649A" d="M440.6 220.6c-17.9.1-33.4 4.4-46.4 10.8-4.8-9.5-9.6-17.8-10.4-24-.9-7.2-2-11.6-.9-20.2s6.1-20.8 6.1-21.8c-.1-.9-1.1-5.3-11.4-5.4-10.3-.1-19.2 2-20.2 4.7s-3 8.9-4.3 15.3c-1.8 9.4-20.6 42.7-31.3 60.2-3.5-6.8-6.5-12.8-7.1-17.6-.9-7.2-2-11.6-.9-20.2s6.1-20.8 6.1-21.8c-.1-.9-1.1-5.3-11.4-5.4-10.3-.1-19.2 2-20.2 4.7s-2.1 9.1-4.3 15.3c-2.1 6.2-27.1 61.8-33.6 76.3-3.3 7.4-6.2 13.3-8.3 17.3s-.1.3-.3.7c-1.8 3.4-2.8 5.3-2.8 5.3v.1c-1.4 2.5-2.9 4.9-3.6 4.9-.5 0-1.5-6.7.2-15.9 3.7-19.3 12.7-49.4 12.6-50.5 0-.5 1.7-5.8-5.8-8.5-7.3-2.7-9.9 1.8-10.5 1.8-.6 0-1.1 1.6-1.1 1.6s8.1-33.9-15.5-33.9c-14.8 0-35.2 16.1-45.3 30.8-6.4 3.5-20 10.9-34.4 18.8-5.5 3-11.2 6.2-16.6 9.1l-1.1-1.2c-28.6-30.5-81.5-52.1-79.3-93.1.8-14.9 6-54.2 101.6-101.8 78.3-39 141-28.3 151.9-4.5 15.5 34-33.5 97.2-114.9 106.3-31 3.5-47.3-8.5-51.4-13-4.3-4.7-4.9-4.9-6.5-4-2.6 1.4-1 5.6 0 8.1 2.4 6.3 12.4 17.5 29.4 23.1 14.9 4.9 51.3 7.6 95.3-9.4 49.3-19.1 87.8-72.1 76.5-116.4-11.5-45.1-86.3-59.9-157-34.8-42.1 15-87.7 38.4-120.5 69.1-39 36.4-45.2 68.2-42.6 81.4 9.1 47.1 74 77.8 100 100.5-1.3.7-2.5 1.4-3.6 2-13 6.4-62.5 32.3-74.9 59.7-14 31 2.2 53.3 13 56.3 33.4 9.3 67.6-7.4 86.1-34.9 18.4-27.5 16.2-63.2 7.7-79.5l-.3-.6 10.2-6c6.6-3.9 13.1-7.5 18.8-10.6-3.2 8.7-5.5 19-6.7 34-1.4 17.6 5.8 40.4 15.3 49.4 4.2 3.9 9.2 4 12.3 4 11 0 16-9.1 21.5-20 6.8-13.3 12.8-28.7 12.8-28.7s-7.5 41.7 13 41.7c7.5 0 15-9.7 18.4-14.7v.1s.2-.3.6-1c.8-1.2 1.2-1.9 1.2-1.9v-.2c3-5.2 9.7-17.1 19.7-36.8 12.9-25.4 25.3-57.2 25.3-57.2s1.2 7.8 4.9 20.6c2.2 7.6 7 15.9 10.7 24-3 4.2-4.8 6.6-4.8 6.6l.1.1c-2.4 3.2-5.1 6.6-7.9 10-10.2 12.2-22.4 26.1-24 30.1-1.9 4.7-1.5 8.2 2.2 11 2.7 2 7.5 2.4 12.6 2 9.2-.6 15.6-2.9 18.8-4.3 5-1.8 10.7-4.5 16.2-8.5 10-7.4 16.1-17.9 15.5-31.9-.3-7.7-2.8-15.3-5.9-22.5.9-1.3 1.8-2.6 2.7-4 15.8-23.1 28-48.5 28-48.5s1.2 7.8 4.9 20.6c1.9 6.5 5.7 13.6 9.1 20.6-14.8 12.1-24.1 26.1-27.3 35.3-5.9 17-1.3 24.7 7.4 26.5 3.9.8 9.5-1 13.7-2.8 5.2-1.7 11.5-4.6 17.3-8.9 10-7.4 19.6-17.7 19.1-31.6-.3-6.4-2-12.7-4.3-18.7 12.6-5.2 28.9-8.2 49.6-5.7 44.5 5.2 53.3 33 51.6 44.6-1.7 11.6-11 18-14.1 20-3.1 1.9-4.1 2.6-3.8 4 .4 2.1 1.8 2 4.5 1.6 3.7-.6 23.4-9.5 24.2-30.9 1.2-27.5-24.9-57.5-71.2-57.2zm-343.2 115.7c-14.7 16.1-35.4 22.2-44.2 17-9.5-5.5-5.8-29.2 12.3-46.3 11-10.4 25.3-20 34.7-25.9 2.1-1.3 5.3-3.2 9.1-5.5.6-.4 1-.6 1-.6.7-.4 1.5-.9 2.3-1.4 6.7 24.4.3 45.8-15.2 62.7zm107.5-73.1c-5.1 12.5-15.9 44.6-22.4 42.8-5.6-1.5-9-25.8-1.1-49.8 4-12.1 12.5-26.5 17.5-32.1 8.1-9 16.9-12 19.1-8.3 2.6 4.8-9.9 39.6-13.1 47.4zm88.7 42.4c-2.2 1.1-4.2 1.9-5.1 1.3-.7-.4.9-1.9.9-1.9s11.1-11.9 15.5-17.4c2.5-3.2 5.5-6.9 8.7-11.1v1.2c0 14.4-13.8 24-20 27.9zm68.4-15.6c-1.6-1.2-1.4-4.9 4-16.5 2.1-4.6 6.9-12.3 15.2-19.6 1 3 1.6 5.9 1.5 8.6-.1 18-12.9 24.7-20.7 27.5z"/></symbol></svg>